<svg width="58" height="58" viewBox="0 0 58 58" fill="none" xmlns="http://www.w3.org/2000/svg">
<path d="M53.1667 38.8123C53.1667 47.5145 47.9225 52.7023 39.1259 52.7023H36.25C34.9209 52.7023 33.8334 51.6265 33.8334 50.3116V36.5173C33.8334 35.8718 34.365 35.3219 35.0175 35.3219L39.2709 35.2502C39.6092 35.2263 39.8992 34.9872 39.9717 34.6525L40.8176 30.0862C40.8901 29.6559 40.5517 29.2495 40.0925 29.2495L34.945 29.3212C34.2684 29.3212 33.7367 28.7953 33.7126 28.1498L33.6159 22.2925C33.6159 21.91 33.93 21.5753 34.3409 21.5753L40.1408 21.4797C40.5517 21.4797 40.8659 21.1689 40.8659 20.7625L40.7692 15.0248C40.7692 14.6183 40.4551 14.3076 40.0442 14.3076L33.5192 14.4032C29.5075 14.4749 26.3176 17.7263 26.3901 21.6948L26.5109 28.2693C26.535 28.9387 26.0034 29.4647 25.3267 29.4886L22.4267 29.5364C22.0159 29.5364 21.7017 29.8471 21.7017 30.2535L21.7742 34.7959C21.7742 35.2024 22.0884 35.5131 22.4992 35.5131L25.3992 35.4653C26.0759 35.4653 26.6075 35.9913 26.6317 36.6368L26.8492 50.2638C26.8733 51.6026 25.7858 52.7023 24.4325 52.7023H18.8742C10.0775 52.7023 4.83337 47.5145 4.83337 38.7884V18.7782C4.83337 10.076 10.0775 4.88818 18.8742 4.88818H39.1259C47.9225 4.88818 53.1667 10.076 53.1667 18.7782V38.8123Z" fill="white"/>
</svg>
