<svg width="58" height="58" viewBox="0 0 58 58" fill="none" xmlns="http://www.w3.org/2000/svg">
<path d="M44.0255 17.5063C45.9475 17.5063 47.5055 15.965 47.5055 14.0637C47.5055 12.1624 45.9475 10.6211 44.0255 10.6211C42.1036 10.6211 40.5455 12.1624 40.5455 14.0637C40.5455 15.965 42.1036 17.5063 44.0255 17.5063Z" fill="white"/>
<path fill-rule="evenodd" clip-rule="evenodd" d="M14.5 28.7949C14.5 36.7058 21.0033 43.1392 29 43.1392C36.9967 43.1392 43.5 36.7058 43.5 28.7949C43.5 20.8841 36.9967 14.4507 29 14.4507C21.0033 14.4507 14.5 20.8841 14.5 28.7949ZM21.75 28.7949C21.75 24.8395 25.0016 21.6228 29 21.6228C32.9984 21.6228 36.25 24.8395 36.25 28.7949C36.25 32.7503 32.9984 35.967 29 35.967C25.0016 35.967 21.75 32.7503 21.75 28.7949Z" fill="white"/>
<path fill-rule="evenodd" clip-rule="evenodd" d="M14.5 57.4834H43.5C50.953 57.4834 58 50.5121 58 43.1392V14.4507C58 7.07774 50.953 0.106445 43.5 0.106445H14.5C7.047 0.106445 0 7.07774 0 14.4507V43.1392C0 50.5121 7.047 57.4834 14.5 57.4834ZM7.25 14.4505C7.25 11.0975 11.1106 7.27839 14.5 7.27839H43.5C46.8894 7.27839 50.75 11.0975 50.75 14.4505V43.139C50.75 46.492 46.8894 50.3111 43.5 50.3111H14.5C11.0454 50.3111 7.25 46.5565 7.25 43.139V14.4505Z" fill="white"/>
</svg>
