<svg width="58" height="58" viewBox="0 0 58 58" fill="none" xmlns="http://www.w3.org/2000/svg">
<path d="M53.1182 27.3843C52.2965 13.5182 39.5607 2.83179 24.8915 5.22249C14.7899 6.87208 6.69406 14.9765 5.12323 24.9697C4.20489 30.7552 5.41328 36.2299 8.04745 40.7484L5.89658 48.6616C5.41324 50.4546 7.0807 52.0803 8.86903 51.5783L16.7474 49.4266C20.3241 51.5065 24.5049 52.7019 28.9757 52.7019C42.6057 52.7019 53.9157 40.8201 53.1182 27.3843ZM40.7932 37.6883C40.5757 38.1186 40.3098 38.525 39.9715 38.9075C39.3673 39.553 38.7148 40.0312 37.9898 40.318C37.2648 40.6288 36.4674 40.7723 35.6215 40.7723C34.389 40.7723 33.0599 40.4854 31.6824 39.8877C30.2807 39.2901 28.9033 38.5011 27.5258 37.5209C26.1241 36.5168 24.8191 35.3932 23.5624 34.1739C22.3057 32.9307 21.194 31.6158 20.179 30.2531C19.1882 28.8904 18.3907 27.5277 17.8107 26.165C17.2307 24.8023 16.9408 23.4875 16.9408 22.2443C16.9408 21.4315 17.0857 20.6425 17.3757 19.9253C17.6657 19.1842 18.125 18.5148 18.7775 17.9171C19.5508 17.1521 20.3966 16.7935 21.2907 16.7935C21.6291 16.7935 21.9673 16.8652 22.2815 17.0087C22.5957 17.1521 22.8857 17.3673 23.1032 17.6781L25.9065 21.5988C26.124 21.9096 26.2932 22.1726 26.3899 22.4355C26.5107 22.6985 26.559 22.9376 26.559 23.1766C26.559 23.4635 26.4624 23.7505 26.2932 24.0373C26.1241 24.3242 25.9065 24.6111 25.6165 24.898L24.6982 25.8542C24.5532 25.9977 24.5049 26.1411 24.5049 26.3324C24.5049 26.428 24.529 26.5236 24.5532 26.6193C24.6015 26.7149 24.6258 26.7866 24.6499 26.8584C24.8674 27.2648 25.254 27.7668 25.7857 28.3884C26.3415 29.01 26.9216 29.6555 27.55 30.2771C28.2025 30.9225 28.8308 31.4963 29.4833 32.0461C30.1116 32.5721 30.6432 32.9308 31.054 33.1459C31.1265 33.1698 31.1991 33.2176 31.2716 33.2415C31.3682 33.2893 31.4649 33.2894 31.5858 33.2894C31.8033 33.2894 31.9483 33.2177 32.0933 33.0742L33.0115 32.1657C33.3257 31.8549 33.6158 31.6398 33.8816 31.4963C34.1716 31.329 34.4374 31.2333 34.7516 31.2333C34.9932 31.2333 35.2349 31.2811 35.5007 31.4007C35.7666 31.5202 36.0565 31.6637 36.3465 31.8789L40.3583 34.6999C40.6724 34.915 40.8899 35.178 41.0349 35.4649C41.1557 35.7757 41.2282 36.0626 41.2282 36.3973C41.0832 36.8037 40.9866 37.2579 40.7932 37.6883Z" fill="white"/>
</svg>
